<svg id="Capa_1" data-name="Capa 1" xmlns="http://www.w3.org/2000/svg" viewBox="0 0 199 232"><defs><style>.cls-1{fill:#00adef;}.cls-2{fill:#70cac9;}.cls-3{fill:#404041;}.cls-4{fill:#ffdd17;}.cls-5{fill:#fff;}</style></defs><title>sonido interno logo</title><path class="cls-1" d="M199,99.34A99.5,99.5,0,1,1,99.5,0,99.42,99.42,0,0,1,199,99.34"/><path class="cls-2" d="M158.55,99.33a59,59,0,1,1-59-58.95,59,59,0,0,1,59,58.95"/><path class="cls-3" d="M119,99.33A19.48,19.48,0,1,1,99.5,79.89,19.46,19.46,0,0,1,119,99.33"/><path class="cls-4" d="M80.36,196.81a100,100,0,0,0,38.89-.11V135.64H80.36Z"/><path class="cls-5" d="M5,226.29a2.88,2.88,0,0,0,.18,1,2.26,2.26,0,0,0,2.34,1.16c.8,0,2-.27,2-1.44,0-.82-.69-1-3.43-1.82-2.52-.71-5.39-1.4-5.39-4.6,0-3.67,3.14-5.25,6.41-5.25,3.45,0,6.5,1.31,6.64,5.18H9.11a1.21,1.21,0,0,0-.58-1.27,2.54,2.54,0,0,0-1.45-.4c-.67,0-1.76.18-1.76,1.07.09,1.13,2.36,1.38,4.61,2s4.48,1.66,4.48,4.58c0,4.14-3.81,5.47-7.35,5.47-1.8,0-6.95-.64-7-5.71Z"/><path class="cls-5" d="M23.07,215.37c4.83,0,8.06,3.47,8.06,8.31S27.9,232,23.07,232,15,228.53,15,223.69s3.23-8.31,8.06-8.31m0,12.67c1.24,0,3.16-.83,3.16-4.36s-1.92-4.36-3.16-4.36-3.16.82-3.16,4.36S21.83,228,23.07,228"/><polygon class="cls-5" points="32.78 215.75 37.79 215.75 42.42 224.24 42.46 224.24 42.46 215.75 47.1 215.75 47.1 231.63 42.33 231.63 37.45 222.95 37.41 222.95 37.41 231.63 32.78 231.63 32.78 215.75"/><rect class="cls-5" x="49.21" y="215.75" width="4.9" height="15.88"/><path class="cls-5" d="M56.18,215.75h8c5.3,0,7.17,3.91,7.17,7.91,0,4.87-2.58,8-8.13,8H56.18Zm4.9,11.81H63c3.05,0,3.49-2.47,3.49-4a3.51,3.51,0,0,0-3.85-3.78H61.08Z"/><path class="cls-5" d="M80.65,215.37c4.83,0,8.06,3.47,8.06,8.31S85.49,232,80.65,232s-8.06-3.47-8.06-8.31,3.23-8.31,8.06-8.31m0,12.67c1.25,0,3.16-.83,3.16-4.36s-1.92-4.36-3.16-4.36-3.16.82-3.16,4.36S79.41,228,80.65,228"/><rect class="cls-5" x="97.33" y="215.75" width="4.9" height="15.88"/><polygon class="cls-5" points="104.32 215.75 109.33 215.75 113.96 224.24 114.01 224.24 114.01 215.75 118.64 215.75 118.64 231.63 113.88 231.63 109 222.95 108.95 222.95 108.95 231.63 104.32 231.63 104.32 215.75"/><polygon class="cls-5" points="124.47 219.82 120.02 219.82 120.02 215.75 133.82 215.75 133.82 219.82 129.37 219.82 129.37 231.62 124.47 231.62 124.47 219.82"/><polygon class="cls-5" points="135.18 215.75 148.34 215.75 148.34 219.82 140.08 219.82 140.08 221.79 147.59 221.79 147.59 225.57 140.08 225.57 140.08 227.55 148.59 227.55 148.59 231.63 135.18 231.63 135.18 215.75"/><path class="cls-5" d="M150.41,215.75h9.33c2.78,0,5.19,1.53,5.19,4.54a4.07,4.07,0,0,1-2.38,4c1.34.51,2.16,2,2.34,4a10.51,10.51,0,0,0,.54,3.4h-4.9a11.69,11.69,0,0,1-.4-2.45c-.13-1.51-.27-3.09-2.2-3.09h-2.61v5.54h-4.9Zm4.9,6.94h2.56c.92,0,2.16-.16,2.16-1.58,0-1-.56-1.58-2.43-1.58h-2.29Z"/><polygon class="cls-5" points="166.49 215.75 171.5 215.75 176.13 224.24 176.18 224.24 176.18 215.75 180.81 215.75 180.81 231.63 176.04 231.63 171.16 222.95 171.12 222.95 171.12 231.63 166.49 231.63 166.49 215.75"/><path class="cls-5" d="M190.51,215.37c4.83,0,8.06,3.47,8.06,8.31s-3.23,8.31-8.06,8.31-8.06-3.47-8.06-8.31,3.23-8.31,8.06-8.31m0,12.67c1.25,0,3.16-.83,3.16-4.36s-1.92-4.36-3.16-4.36-3.16.82-3.16,4.36,1.92,4.36,3.16,4.36"/></svg>